<?xml version="1.0" ?><svg fill="none" height="14" viewBox="0 0 14 14" width="14" xmlns="http://www.w3.org/2000/svg"><g clip-path="url(#clip0_2_725)"><path d="M13.732 2.50799L11.563 0.338994C11.4779 0.253247 11.3766 0.185194 11.265 0.138754C11.1535 0.0923137 11.0338 0.0684052 10.913 0.0684052C10.7922 0.0684052 10.6725 0.0923137 10.561 0.138754C10.4494 0.185194 10.3481 0.253247 10.263 0.338994L5.493 5.16899L4.832 8.19999C4.79961 8.34989 4.80533 8.50552 4.84863 8.65264C4.89194 8.79975 4.97145 8.93366 5.07989 9.0421C5.18833 9.15054 5.32224 9.23005 5.46936 9.27336C5.61647 9.31667 5.7721 9.32239 5.922 9.28999L8.957 8.62899L13.735 3.79999C13.9056 3.62808 14.0011 3.39556 14.0005 3.15337C13.9999 2.91119 13.9034 2.67911 13.732 2.50799Z" fill="white"/><path d="M11.99 8.81H11.582C11.3161 8.81393 11.0624 8.92205 10.8754 9.11111C10.6884 9.30018 10.583 9.55508 10.582 9.821V11.51H2.419V3.349H4.106C4.37379 3.34874 4.63053 3.24224 4.81989 3.05289C5.00924 2.86353 5.11574 2.60679 5.116 2.339V1.931C5.11259 1.66511 5.00477 1.41123 4.81581 1.22414C4.62685 1.03705 4.37191 0.931765 4.106 0.931H1.006C0.769702 0.933818 0.542037 1.02023 0.363379 1.17491C0.18472 1.32959 0.066612 1.54254 0.03 1.776C0.0161448 1.82718 0.00611709 1.87933 0 1.932L0 12.919C0.00253412 13.1673 0.0973508 13.4058 0.266 13.588C0.278 13.601 0.283 13.619 0.296 13.632C0.309 13.645 0.323 13.648 0.335 13.658C0.517905 13.8293 0.758441 13.9256 1.009 13.928H11.99C12.2383 13.9255 12.4768 13.8306 12.659 13.662C12.672 13.65 12.691 13.645 12.703 13.632C12.715 13.619 12.721 13.601 12.733 13.588C12.9018 13.4062 12.9969 13.1681 13 12.92V9.82C12.9997 9.55221 12.8932 9.29547 12.7039 9.10611C12.5145 8.91676 12.2578 8.81027 11.99 8.81Z" fill="white"/></g><defs><clipPath id="clip0_2_725"><rect fill="white" height="14" width="14"/></clipPath></defs></svg>
